<svg width="220" height="217" viewBox="0 0 220 217" fill="none" xmlns="http://www.w3.org/2000/svg">
<path d="M13.0995 29.9243C11.4297 13.1667 31.1896 2.99243 41.2783 0C37.1037 3.19193 28.2326 11.1318 26.1453 17.3561C20.4051 40.0986 37.6255 50.2728 42.8438 56.8561C47.0185 62.1228 66.5001 72.6163 75.7191 77.2047C85.6339 81.9925 103.376 89.1744 134.164 92.1668H171.214C168.257 93.7628 159.943 96.9547 150.341 96.9547C133.225 98.3911 100.071 92.3663 85.6339 89.1744C62.6734 83.1895 15.7236 56.2577 13.0995 29.9243Z" fill="#57B5E0"/>
<path d="M43.2661 61.644V20.3485H168.505V87.3789H157.547V32.3182H52.1372V68.8259L43.2661 61.644Z" fill="#57B5E0"/>
<path d="M196.684 90.9699C219.645 73.4143 206.425 51.0708 196.684 43.091C221.21 56.8562 220.167 75.4092 215.992 85.5835C212.652 93.7229 186.595 106.73 173.724 111.318L180.507 135.258H52.6591L67.2703 105.932V116.106H77.1851V113.712L80.3161 111.318V116.106H85.0125V111.318H88.1435L87.6217 116.106H93.3618V109.523C72.9061 105.693 58.0513 95.5583 53.1809 90.9699C65.8788 96.1568 92.84 105.932 99.102 105.932C121.889 108.725 171.636 110.121 196.684 90.9699Z" fill="#2A4F7B"/>
<path d="M143.458 117.303V113.712H147.11V117.303H143.458Z" fill="white"/>
<path d="M150.763 117.303V113.114L154.416 113.712V117.303H150.763Z" fill="white"/>
<path d="M160.156 117.303V113.114V112.515H164.853L165.896 113.712L164.853 117.303H160.156Z" fill="white"/>
<path d="M162.243 126.281V122.091H167.462V126.281H162.243Z" fill="white"/>
<path d="M153.372 126.281V122.091H157.547V126.281H153.372Z" fill="white"/>
<path d="M144.501 121.493H149.198V126.281H144.501V121.493Z" fill="white"/>
<path d="M136.152 126.281L136.674 121.493H131.455L130.934 125.682L136.152 126.281Z" fill="white"/>
<path d="M122.062 126.879L122.584 121.493H127.803L127.281 126.879H122.062Z" fill="white"/>
<path d="M112.148 126.879L112.67 121.493H118.41L118.931 126.281L112.148 126.879Z" fill="white"/>
<path d="M108.495 126.281L109.017 121.493H103.798V126.281H108.495Z" fill="white"/>
<path d="M99.6238 126.281L100.667 121.493H93.8836V125.682L99.6238 126.281Z" fill="white"/>
<path d="M91.2745 126.281V121.493H90.7527H85.0125V126.281H91.2745Z" fill="white"/>
<path d="M82.9252 126.281V121.493H77.1851L76.6632 126.281H82.9252Z" fill="white"/>
<path d="M73.0104 126.281V122.091H65.183V125.682L73.0104 126.281Z" fill="white"/>
<path d="M136.674 117.303V113.712H130.934L131.455 117.303H136.674Z" fill="white"/>
<path d="M127.281 117.303V113.712H122.062L122.584 117.303H127.281Z" fill="white"/>
<path d="M117.366 117.303V113.114H112.67V117.303H117.366Z" fill="white"/>
<path d="M108.495 117.303V113.712L103.798 113.114V117.303H108.495Z" fill="white"/>
<path d="M100.146 116.705L100.667 111.318H96.4928V116.705H100.146Z" fill="white"/>
<path d="M87.6217 115.508H85.0125V112.515H87.6217V115.508Z" fill="white"/>
<path d="M79.7942 113.114V115.508H78.2287V113.712L79.7942 113.114Z" fill="white"/>
<path d="M143.458 117.303V113.712H147.11V117.303H143.458Z" stroke="black" stroke-width="1.77152"/>
<path d="M150.763 117.303V113.114L154.416 113.712V117.303H150.763Z" stroke="black" stroke-width="1.77152"/>
<path d="M160.156 117.303V113.114V112.515H164.853L165.896 113.712L164.853 117.303H160.156Z" stroke="black" stroke-width="1.77152"/>
<path d="M162.243 126.281V122.091H167.462V126.281H162.243Z" stroke="black" stroke-width="1.77152"/>
<path d="M153.372 126.281V122.091H157.547V126.281H153.372Z" stroke="black" stroke-width="1.77152"/>
<path d="M144.501 121.493H149.198V126.281H144.501V121.493Z" stroke="black" stroke-width="1.77152"/>
<path d="M136.152 126.281L136.674 121.493H131.455L130.934 125.682L136.152 126.281Z" stroke="black" stroke-width="1.77152"/>
<path d="M122.062 126.879L122.584 121.493H127.803L127.281 126.879H122.062Z" stroke="black" stroke-width="1.77152"/>
<path d="M112.148 126.879L112.67 121.493H118.41L118.931 126.281L112.148 126.879Z" stroke="black" stroke-width="1.77152"/>
<path d="M108.495 126.281L109.017 121.493H103.798V126.281H108.495Z" stroke="black" stroke-width="1.77152"/>
<path d="M99.6238 126.281L100.667 121.493H93.8836V125.682L99.6238 126.281Z" stroke="black" stroke-width="1.77152"/>
<path d="M91.2745 126.281V121.493H90.7527H85.0125V126.281H91.2745Z" stroke="black" stroke-width="1.77152"/>
<path d="M82.9252 126.281V121.493H77.1851L76.6632 126.281H82.9252Z" stroke="black" stroke-width="1.77152"/>
<path d="M73.0104 126.281V122.091H65.183V125.682L73.0104 126.281Z" stroke="black" stroke-width="1.77152"/>
<path d="M136.674 117.303V113.712H130.934L131.455 117.303H136.674Z" stroke="black" stroke-width="1.77152"/>
<path d="M127.281 117.303V113.712H122.062L122.584 117.303H127.281Z" stroke="black" stroke-width="1.77152"/>
<path d="M117.366 117.303V113.114H112.67V117.303H117.366Z" stroke="black" stroke-width="1.77152"/>
<path d="M108.495 117.303V113.712L103.798 113.114V117.303H108.495Z" stroke="black" stroke-width="1.77152"/>
<path d="M100.146 116.705L100.667 111.318H96.4928V116.705H100.146Z" stroke="black" stroke-width="1.77152"/>
<path d="M87.6217 115.508H85.0125V112.515H87.6217V115.508Z" stroke="black" stroke-width="1.77152"/>
<path d="M79.7942 113.114V115.508H78.2287V113.712L79.7942 113.114Z" stroke="black" stroke-width="1.77152"/>
<path d="M137.195 44.288L152.85 43.091V50.2728H145.023L143.979 53.2653L152.85 71.2198L150.763 76.0077L137.195 79.0002L135.108 71.2198L143.979 68.8259L135.108 51.4698L137.195 44.288Z" fill="#57B5E0"/>
<path d="M59.1255 168.253C55.3043 167.155 52.5196 165.809 50.7715 164.215C49.0388 162.606 48.1724 160.626 48.1724 158.275C48.1724 155.614 49.2322 153.417 51.3516 151.684C53.4865 149.936 56.2557 149.062 59.6592 149.062C61.9798 149.062 64.0451 149.511 65.8551 150.408C67.6806 151.305 69.0884 152.543 70.0785 154.121C71.0841 155.699 71.5869 157.424 71.5869 159.296H67.1082C67.1082 157.254 66.4584 155.653 65.1589 154.492C63.8594 153.317 62.0262 152.729 59.6592 152.729C57.4624 152.729 55.7452 153.216 54.5076 154.191C53.2854 155.15 52.6743 156.488 52.6743 158.205C52.6743 159.582 53.2545 160.75 54.4147 161.709C55.5905 162.653 57.5784 163.519 60.3786 164.308C63.1942 165.097 65.391 165.971 66.969 166.93C68.5624 167.874 69.7382 168.98 70.4962 170.249C71.2697 171.517 71.6565 173.01 71.6565 174.728C71.6565 177.466 70.589 179.663 68.4541 181.318C66.3192 182.958 63.4649 183.778 59.8913 183.778C57.5707 183.778 55.4048 183.337 53.3937 182.455C51.3825 181.558 49.8278 180.336 48.7294 178.789C47.6464 177.241 47.105 175.486 47.105 173.521H51.5837C51.5837 175.563 52.334 177.18 53.8346 178.371C55.3507 179.547 57.3696 180.134 59.8913 180.134C62.2428 180.134 64.0451 179.655 65.2982 178.696C66.5513 177.737 67.1778 176.429 67.1778 174.774C67.1778 173.119 66.5977 171.842 65.4374 170.945C64.2771 170.032 62.1731 169.135 59.1255 168.253ZM87.3435 168.253C83.5223 167.155 80.7376 165.809 78.9895 164.215C77.2568 162.606 76.3904 160.626 76.3904 158.275C76.3904 155.614 77.4502 153.417 79.5696 151.684C81.7045 149.936 84.4737 149.062 87.8772 149.062C90.1978 149.062 92.2631 149.511 94.0731 150.408C95.8986 151.305 97.3064 152.543 98.2965 154.121C99.3021 155.699 99.8049 157.424 99.8049 159.296H95.3262C95.3262 157.254 94.6764 155.653 93.3769 154.492C92.0774 153.317 90.2442 152.729 87.8772 152.729C85.6804 152.729 83.9632 153.216 82.7256 154.191C81.5034 155.15 80.8923 156.488 80.8923 158.205C80.8923 159.582 81.4725 160.75 82.6327 161.709C83.8085 162.653 85.7964 163.519 88.5966 164.308C91.4122 165.097 93.609 165.971 95.187 166.93C96.7804 167.874 97.9562 168.98 98.7142 170.249C99.4877 171.517 99.8745 173.01 99.8745 174.728C99.8745 177.466 98.807 179.663 96.6721 181.318C94.5372 182.958 91.6829 183.778 88.1093 183.778C85.7887 183.778 83.6228 183.337 81.6117 182.455C79.6005 181.558 78.0458 180.336 76.9474 178.789C75.8644 177.241 75.323 175.486 75.323 173.521H79.8017C79.8017 175.563 80.552 177.18 82.0526 178.371C83.5687 179.547 85.5876 180.134 88.1093 180.134C90.4608 180.134 92.2631 179.655 93.5162 178.696C94.7693 177.737 95.3958 176.429 95.3958 174.774C95.3958 173.119 94.8157 171.842 93.6554 170.945C92.4951 170.032 90.3911 169.135 87.3435 168.253Z" fill="#57B5E0"/>
<path d="M131.23 172.593C130.812 176.166 129.489 178.928 127.261 180.877C125.049 182.811 122.102 183.778 118.42 183.778C114.429 183.778 111.226 182.347 108.813 179.485C106.415 176.623 105.216 172.794 105.216 167.998V164.749C105.216 161.609 105.773 158.847 106.887 156.465C108.016 154.082 109.61 152.257 111.667 150.988C113.725 149.704 116.107 149.062 118.815 149.062C122.404 149.062 125.281 150.068 127.447 152.079C129.613 154.075 130.874 156.844 131.23 160.386H126.751C126.364 157.695 125.521 155.745 124.221 154.539C122.937 153.332 121.135 152.729 118.815 152.729C115.968 152.729 113.733 153.781 112.108 155.885C110.499 157.989 109.695 160.982 109.695 164.865V168.137C109.695 171.804 110.461 174.72 111.992 176.886C113.524 179.052 115.666 180.134 118.42 180.134C120.895 180.134 122.79 179.577 124.105 178.464C125.436 177.334 126.318 175.377 126.751 172.593H131.23ZM155.99 174.495H141.834L138.655 183.314H134.061L146.963 149.526H150.861L163.787 183.314H159.215L155.99 174.495ZM143.18 170.829H154.667L148.912 155.026L143.18 170.829Z" fill="#2A4F7B"/>
<path d="M5.68659 196.661C5.68659 196.501 5.65787 196.351 5.60042 196.212C5.54708 196.072 5.45271 195.943 5.3173 195.824C5.18599 195.701 5.0116 195.59 4.79413 195.492C4.58076 195.389 4.31405 195.295 3.99399 195.209C3.60418 195.102 3.23078 194.969 2.8738 194.809C2.52092 194.648 2.20907 194.456 1.93825 194.23C1.66744 194.004 1.44996 193.742 1.28583 193.442C1.1258 193.143 1.04579 192.798 1.04579 192.408C1.04579 192.031 1.1258 191.688 1.28583 191.38C1.44586 191.072 1.66744 190.81 1.95056 190.592C2.23369 190.375 2.56811 190.209 2.95381 190.094C3.33952 189.975 3.75805 189.915 4.20941 189.915C4.67719 189.915 5.10393 189.983 5.48964 190.118C5.87945 190.254 6.21386 190.445 6.49289 190.691C6.77191 190.933 6.98938 191.222 7.14531 191.559C7.30123 191.895 7.37919 192.264 7.37919 192.667H5.69275C5.68454 192.466 5.64761 192.281 5.58196 192.113C5.52041 191.944 5.42604 191.801 5.29883 191.682C5.17574 191.559 5.01981 191.464 4.83106 191.399C4.64641 191.329 4.42894 191.294 4.17864 191.294C3.94886 191.294 3.74369 191.323 3.56315 191.38C3.38671 191.434 3.23694 191.512 3.11384 191.614C2.99074 191.713 2.89637 191.832 2.83071 191.971C2.76917 192.107 2.73839 192.254 2.73839 192.414C2.73839 192.582 2.77942 192.734 2.86149 192.87C2.94766 193.005 3.07076 193.128 3.23078 193.239C3.39081 193.346 3.58367 193.444 3.80935 193.534C4.03913 193.625 4.29764 193.709 4.58486 193.787C4.99519 193.906 5.37269 194.051 5.71737 194.224C6.06204 194.396 6.35748 194.601 6.60367 194.839C6.85397 195.073 7.04683 195.342 7.18224 195.646C7.32175 195.945 7.3915 196.28 7.3915 196.649C7.3915 197.043 7.31149 197.394 7.15146 197.701C6.99554 198.005 6.77806 198.263 6.49904 198.477C6.22002 198.686 5.88765 198.846 5.50195 198.957C5.11624 199.064 4.69565 199.117 4.24019 199.117C3.95706 199.117 3.67394 199.09 3.39081 199.037C3.11179 198.988 2.84302 198.91 2.58452 198.803C2.33012 198.696 2.09213 198.563 1.87055 198.403C1.64897 198.243 1.45612 198.056 1.29199 197.843C1.13196 197.63 1.00476 197.387 0.910383 197.117C0.820111 196.846 0.774975 196.546 0.774975 196.218H2.47373C2.48194 196.489 2.52912 196.721 2.61529 196.913C2.70146 197.106 2.82046 197.264 2.97228 197.387C3.1282 197.511 3.31285 197.601 3.52622 197.658C3.74369 197.716 3.98168 197.744 4.24019 197.744C4.46997 197.744 4.67308 197.718 4.84953 197.664C5.03007 197.611 5.18189 197.537 5.30499 197.443C5.42809 197.348 5.52246 197.236 5.58811 197.104C5.65377 196.969 5.68659 196.821 5.68659 196.661ZM9.12103 192.34H12.7463V197.609H14.5497V199H9.12103V197.609H11.0167V193.738H9.12103V192.34ZM10.8936 190.635C10.8936 190.504 10.9162 190.383 10.9614 190.272C11.0106 190.157 11.0783 190.061 11.1645 189.983C11.2506 189.901 11.3532 189.837 11.4722 189.792C11.5953 189.747 11.7307 189.725 11.8784 189.725C12.1821 189.725 12.4221 189.811 12.5986 189.983C12.7791 190.151 12.8694 190.369 12.8694 190.635C12.8694 190.902 12.7791 191.122 12.5986 191.294C12.4221 191.462 12.1821 191.546 11.8784 191.546C11.7307 191.546 11.5953 191.524 11.4722 191.479C11.3532 191.434 11.2506 191.372 11.1645 191.294C11.0783 191.212 11.0106 191.116 10.9614 191.005C10.9162 190.89 10.8936 190.767 10.8936 190.635ZM20.5322 197.172C20.5322 197.069 20.5076 196.979 20.4584 196.901C20.4132 196.823 20.3291 196.751 20.206 196.686C20.087 196.616 19.927 196.552 19.7259 196.495C19.5249 196.438 19.2705 196.38 18.9627 196.323C18.5729 196.245 18.2159 196.148 17.8918 196.033C17.5717 195.914 17.2968 195.773 17.067 195.609C16.8372 195.44 16.6567 195.248 16.5254 195.03C16.3982 194.813 16.3346 194.562 16.3346 194.279C16.3346 194.004 16.4002 193.742 16.5315 193.491C16.6628 193.241 16.8516 193.022 17.0978 192.833C17.344 192.644 17.6435 192.494 17.9964 192.383C18.3493 192.273 18.7473 192.217 19.1905 192.217C19.6541 192.217 20.0706 192.273 20.4399 192.383C20.8092 192.49 21.1211 192.64 21.3755 192.833C21.634 193.022 21.8309 193.247 21.9663 193.51C22.1017 193.772 22.1694 194.058 22.1694 194.365H20.4584C20.4584 194.107 20.3537 193.891 20.1445 193.719C19.9352 193.543 19.6172 193.454 19.1905 193.454C18.7924 193.454 18.4909 193.526 18.2857 193.67C18.0846 193.813 17.9841 193.99 17.9841 194.199C17.9841 194.298 18.0046 194.39 18.0457 194.476C18.0867 194.558 18.1585 194.634 18.2611 194.704C18.3678 194.77 18.5114 194.831 18.6919 194.889C18.8725 194.942 19.1022 194.989 19.3813 195.03C19.7834 195.096 20.1568 195.18 20.5015 195.282C20.8461 195.385 21.1436 195.518 21.3939 195.683C21.6442 195.843 21.8391 196.039 21.9786 196.273C22.1223 196.503 22.1941 196.778 22.1941 197.098C22.1941 197.394 22.1223 197.666 21.9786 197.917C21.8391 198.163 21.6381 198.376 21.3755 198.557C21.117 198.737 20.8031 198.879 20.4338 198.982C20.0645 199.08 19.6521 199.129 19.1966 199.129C18.696 199.129 18.2529 199.064 17.8672 198.932C17.4856 198.801 17.1655 198.631 16.907 198.421C16.6485 198.208 16.4515 197.968 16.3161 197.701C16.1848 197.43 16.1192 197.16 16.1192 196.889H17.7502C17.7625 197.069 17.8118 197.225 17.8979 197.357C17.9841 197.484 18.0949 197.588 18.2303 197.671C18.3657 197.749 18.5196 197.806 18.6919 197.843C18.8684 197.88 19.0489 197.898 19.2335 197.898C19.6562 197.898 19.9783 197.831 20.1999 197.695C20.4214 197.56 20.5322 197.385 20.5322 197.172ZM26.9457 190.709V192.34H29.4322V193.602H26.9457V196.464C26.9457 196.706 26.9723 196.909 27.0257 197.074C27.0831 197.234 27.1631 197.363 27.2657 197.461C27.3683 197.556 27.4914 197.623 27.635 197.664C27.7827 197.705 27.9468 197.726 28.1274 197.726C28.2587 197.726 28.3921 197.72 28.5275 197.707C28.667 197.695 28.7983 197.681 28.9214 197.664C29.0486 197.644 29.1655 197.623 29.2722 197.603C29.383 197.582 29.4774 197.562 29.5553 197.541L29.7215 198.717C29.6025 198.787 29.463 198.848 29.303 198.902C29.143 198.951 28.9727 198.992 28.7921 199.025C28.6116 199.057 28.4228 199.082 28.2259 199.098C28.033 199.119 27.8422 199.129 27.6535 199.129C27.2883 199.129 26.9559 199.082 26.6564 198.988C26.3609 198.889 26.1065 198.739 25.8932 198.538C25.6839 198.333 25.5218 198.075 25.4069 197.763C25.292 197.447 25.2346 197.069 25.2346 196.63V193.602H23.7143V192.34H25.2346V190.709H26.9457ZM34.6085 199.123C34.0956 199.123 33.6299 199.039 33.2113 198.871C32.7928 198.703 32.4338 198.475 32.1342 198.188C31.8347 197.896 31.6029 197.556 31.4387 197.166C31.2787 196.772 31.1987 196.351 31.1987 195.904V195.658C31.1987 195.149 31.2787 194.685 31.4387 194.267C31.5988 193.844 31.8224 193.481 32.1096 193.177C32.3968 192.874 32.7374 192.638 33.1313 192.47C33.5252 192.301 33.954 192.217 34.4177 192.217C34.8978 192.217 35.3245 192.297 35.6979 192.457C36.0754 192.613 36.3934 192.835 36.6519 193.122C36.9146 193.409 37.1136 193.756 37.249 194.162C37.3844 194.564 37.4521 195.01 37.4521 195.498V196.224H32.9344C32.9672 196.45 33.0329 196.657 33.1313 196.846C33.2339 197.03 33.3632 197.19 33.5191 197.326C33.675 197.461 33.8535 197.566 34.0546 197.64C34.2556 197.714 34.4752 197.751 34.7131 197.751C34.8814 197.751 35.0476 197.734 35.2117 197.701C35.3799 197.668 35.54 197.621 35.6918 197.56C35.8436 197.494 35.9852 197.414 36.1165 197.32C36.2478 197.225 36.3627 197.115 36.4611 196.987L37.3167 197.911C37.21 198.062 37.0705 198.212 36.8981 198.36C36.7299 198.504 36.5288 198.633 36.295 198.748C36.0652 198.858 35.8087 198.949 35.5256 199.018C35.2425 199.088 34.9368 199.123 34.6085 199.123ZM34.4054 193.602C34.2125 193.602 34.0361 193.637 33.8761 193.707C33.7161 193.772 33.5745 193.869 33.4514 193.996C33.3324 194.123 33.2319 194.275 33.1498 194.452C33.0677 194.628 33.0062 194.825 32.9652 195.042H35.7718V194.907C35.7636 194.726 35.7287 194.556 35.6672 194.396C35.6056 194.236 35.5174 194.099 35.4025 193.984C35.2876 193.865 35.146 193.772 34.9778 193.707C34.8137 193.637 34.6229 193.602 34.4054 193.602ZM40.0125 192.34L40.0618 193.147C40.189 192.859 40.3634 192.634 40.5849 192.47C40.8106 192.301 41.0835 192.217 41.4035 192.217C41.9411 192.217 42.2919 192.453 42.456 192.925C42.5873 192.704 42.7535 192.531 42.9546 192.408C43.1597 192.281 43.4059 192.217 43.6932 192.217C43.8942 192.217 44.0809 192.254 44.2533 192.328C44.4297 192.402 44.5815 192.521 44.7087 192.685C44.84 192.845 44.9406 193.054 45.0103 193.313C45.0842 193.567 45.1211 193.879 45.1211 194.248V199H43.5639V194.242C43.5639 194.115 43.5495 194.01 43.5208 193.928C43.4962 193.846 43.4613 193.783 43.4162 193.738C43.3711 193.688 43.3177 193.655 43.2562 193.639C43.1987 193.619 43.1392 193.608 43.0777 193.608C42.9587 193.608 42.8581 193.637 42.7761 193.694C42.694 193.748 42.6304 193.822 42.5853 193.916V199H41.0773V194.236C41.0773 194.109 41.065 194.004 41.0404 193.922C41.0158 193.84 40.9809 193.777 40.9358 193.731C40.8947 193.686 40.8455 193.655 40.788 193.639C40.7306 193.619 40.669 193.608 40.6034 193.608C40.4721 193.608 40.3654 193.645 40.2833 193.719C40.2054 193.793 40.1438 193.891 40.0987 194.015V199H38.5415V192.34H40.0125ZM50.679 199C50.6379 198.918 50.6031 198.824 50.5743 198.717C50.5456 198.61 50.521 198.497 50.5005 198.378C50.4061 198.481 50.2974 198.577 50.1743 198.668C50.0512 198.758 49.9137 198.838 49.7619 198.908C49.6142 198.973 49.4501 199.025 49.2695 199.062C49.089 199.103 48.8941 199.123 48.6848 199.123C48.3442 199.123 48.0303 199.074 47.7431 198.975C47.46 198.877 47.2158 198.739 47.0107 198.563C46.8055 198.387 46.6455 198.177 46.5306 197.935C46.4157 197.689 46.3582 197.422 46.3582 197.135C46.3582 196.433 46.6188 195.892 47.1399 195.51C47.6651 195.124 48.4468 194.932 49.4849 194.932H50.4389V194.538C50.4389 194.218 50.3343 193.965 50.125 193.781C49.9158 193.592 49.6142 193.498 49.2203 193.498C48.8715 193.498 48.6171 193.573 48.4571 193.725C48.297 193.873 48.217 194.072 48.217 194.322H46.506C46.506 194.039 46.5675 193.77 46.6906 193.516C46.8178 193.262 47.0004 193.038 47.2384 192.845C47.4805 192.652 47.7739 192.5 48.1185 192.39C48.4673 192.275 48.8653 192.217 49.3126 192.217C49.7147 192.217 50.0881 192.267 50.4328 192.365C50.7816 192.463 51.0832 192.609 51.3376 192.802C51.592 192.995 51.791 193.239 51.9346 193.534C52.0782 193.826 52.15 194.164 52.15 194.55V197.406C52.15 197.763 52.1726 198.058 52.2177 198.292C52.2628 198.526 52.3285 198.727 52.4147 198.895V199H50.679ZM49.0479 197.8C49.2203 197.8 49.3803 197.779 49.528 197.738C49.6757 197.697 49.8091 197.644 49.9281 197.578C50.0471 197.513 50.1497 197.439 50.2358 197.357C50.322 197.27 50.3897 197.184 50.4389 197.098V195.953H49.5649C49.2982 195.953 49.0705 195.98 48.8817 196.033C48.693 196.083 48.5391 196.154 48.4201 196.249C48.3011 196.339 48.2129 196.45 48.1555 196.581C48.098 196.708 48.0693 196.848 48.0693 197C48.0693 197.229 48.1493 197.42 48.3093 197.572C48.4735 197.724 48.7197 197.8 49.0479 197.8ZM61.4808 195.621C61.4808 195.116 61.5383 194.655 61.6532 194.236C61.7722 193.818 61.9445 193.459 62.1702 193.159C62.3959 192.859 62.6687 192.628 62.9888 192.463C63.313 192.299 63.6823 192.217 64.0967 192.217C64.4455 192.217 64.7512 192.281 65.0138 192.408C65.2805 192.531 65.5164 192.708 65.7216 192.937V189.546H67.4388V199H65.8939L65.8078 198.304C65.5985 198.563 65.3523 198.764 65.0692 198.908C64.786 199.051 64.4578 199.123 64.0844 199.123C63.6782 199.123 63.313 199.039 62.9888 198.871C62.6687 198.698 62.3959 198.462 62.1702 198.163C61.9486 197.863 61.7783 197.508 61.6593 197.098C61.5403 196.684 61.4808 196.234 61.4808 195.75V195.621ZM63.1919 195.75C63.1919 196.029 63.2145 196.29 63.2596 196.532C63.3089 196.77 63.3868 196.979 63.4935 197.16C63.6002 197.336 63.7377 197.476 63.9059 197.578C64.0741 197.681 64.2793 197.732 64.5214 197.732C64.8168 197.732 65.061 197.668 65.2538 197.541C65.4508 197.414 65.6067 197.24 65.7216 197.018V194.322C65.6067 194.097 65.4528 193.922 65.26 193.799C65.0671 193.672 64.825 193.608 64.5337 193.608C64.2916 193.608 64.0844 193.662 63.912 193.768C63.7438 193.871 63.6063 194.015 63.4997 194.199C63.393 194.38 63.315 194.593 63.2658 194.839C63.2165 195.081 63.1919 195.342 63.1919 195.621V195.75ZM72.4612 199.123C71.9483 199.123 71.4826 199.039 71.064 198.871C70.6455 198.703 70.2865 198.475 69.9869 198.188C69.6874 197.896 69.4556 197.556 69.2914 197.166C69.1314 196.772 69.0514 196.351 69.0514 195.904V195.658C69.0514 195.149 69.1314 194.685 69.2914 194.267C69.4515 193.844 69.6751 193.481 69.9623 193.177C70.2495 192.874 70.5901 192.638 70.984 192.47C71.3779 192.301 71.8067 192.217 72.2704 192.217C72.7505 192.217 73.1772 192.297 73.5506 192.457C73.9281 192.613 74.2461 192.835 74.5046 193.122C74.7672 193.409 74.9663 193.756 75.1017 194.162C75.2371 194.564 75.3048 195.01 75.3048 195.498V196.224H70.7871C70.8199 196.45 70.8856 196.657 70.984 196.846C71.0866 197.03 71.2159 197.19 71.3718 197.326C71.5277 197.461 71.7062 197.566 71.9073 197.64C72.1083 197.714 72.3279 197.751 72.5658 197.751C72.7341 197.751 72.9003 197.734 73.0644 197.701C73.2326 197.668 73.3927 197.621 73.5445 197.56C73.6963 197.494 73.8379 197.414 73.9692 197.32C74.1005 197.225 74.2154 197.115 74.3138 196.987L75.1694 197.911C75.0627 198.062 74.9232 198.212 74.7508 198.36C74.5826 198.504 74.3815 198.633 74.1477 198.748C73.9179 198.858 73.6614 198.949 73.3783 199.018C73.0952 199.088 72.7895 199.123 72.4612 199.123ZM72.2581 193.602C72.0652 193.602 71.8888 193.637 71.7288 193.707C71.5687 193.772 71.4272 193.869 71.3041 193.996C71.1851 194.123 71.0846 194.275 71.0025 194.452C70.9204 194.628 70.8589 194.825 70.8178 195.042H73.6245V194.907C73.6163 194.726 73.5814 194.556 73.5199 194.396C73.4583 194.236 73.3701 194.099 73.2552 193.984C73.1403 193.865 72.9987 193.772 72.8305 193.707C72.6664 193.637 72.4756 193.602 72.2581 193.602ZM88.9625 196.661C88.9625 196.501 88.9338 196.351 88.8764 196.212C88.823 196.072 88.7286 195.943 88.5932 195.824C88.4619 195.701 88.2875 195.59 88.0701 195.492C87.8567 195.389 87.59 195.295 87.2699 195.209C86.8801 195.102 86.5067 194.969 86.1497 194.809C85.7969 194.648 85.485 194.456 85.2142 194.23C84.9434 194.004 84.7259 193.742 84.5618 193.442C84.4017 193.143 84.3217 192.798 84.3217 192.408C84.3217 192.031 84.4017 191.688 84.5618 191.38C84.7218 191.072 84.9434 190.81 85.2265 190.592C85.5096 190.375 85.844 190.209 86.2297 190.094C86.6155 189.975 87.034 189.915 87.4853 189.915C87.9531 189.915 88.3799 189.983 88.7656 190.118C89.1554 190.254 89.4898 190.445 89.7688 190.691C90.0478 190.933 90.2653 191.222 90.4212 191.559C90.5772 191.895 90.6551 192.264 90.6551 192.667H88.9687C88.9605 192.466 88.9235 192.281 88.8579 192.113C88.7963 191.944 88.702 191.801 88.5748 191.682C88.4517 191.559 88.2957 191.464 88.107 191.399C87.9223 191.329 87.7049 191.294 87.4546 191.294C87.2248 191.294 87.0196 191.323 86.8391 191.38C86.6626 191.434 86.5129 191.512 86.3898 191.614C86.2667 191.713 86.1723 191.832 86.1066 191.971C86.0451 192.107 86.0143 192.254 86.0143 192.414C86.0143 192.582 86.0554 192.734 86.1374 192.87C86.2236 193.005 86.3467 193.128 86.5067 193.239C86.6667 193.346 86.8596 193.444 87.0853 193.534C87.3151 193.625 87.5736 193.709 87.8608 193.787C88.2711 193.906 88.6486 194.051 88.9933 194.224C89.338 194.396 89.6334 194.601 89.8796 194.839C90.1299 195.073 90.3228 195.342 90.4582 195.646C90.5977 195.945 90.6674 196.28 90.6674 196.649C90.6674 197.043 90.5874 197.394 90.4274 197.701C90.2715 198.005 90.054 198.263 89.775 198.477C89.496 198.686 89.1636 198.846 88.7779 198.957C88.3922 199.064 87.9716 199.117 87.5161 199.117C87.233 199.117 86.9499 199.09 86.6667 199.037C86.3877 198.988 86.119 198.91 85.8605 198.803C85.606 198.696 85.3681 198.563 85.1465 198.403C84.9249 198.243 84.7321 198.056 84.5679 197.843C84.4079 197.63 84.2807 197.387 84.1863 197.117C84.096 196.846 84.0509 196.546 84.0509 196.218H85.7497C85.7579 196.489 85.8051 196.721 85.8912 196.913C85.9774 197.106 86.0964 197.264 86.2482 197.387C86.4041 197.511 86.5888 197.601 86.8022 197.658C87.0196 197.716 87.2576 197.744 87.5161 197.744C87.7459 197.744 87.949 197.718 88.1255 197.664C88.306 197.611 88.4578 197.537 88.5809 197.443C88.704 197.348 88.7984 197.236 88.864 197.104C88.9297 196.969 88.9625 196.821 88.9625 196.661ZM95.1728 199.123C94.6599 199.123 94.1942 199.039 93.7757 198.871C93.3571 198.703 92.9981 198.475 92.6986 198.188C92.399 197.896 92.1672 197.556 92.003 197.166C91.843 196.772 91.763 196.351 91.763 195.904V195.658C91.763 195.149 91.843 194.685 92.003 194.267C92.1631 193.844 92.3867 193.481 92.6739 193.177C92.9612 192.874 93.3017 192.638 93.6956 192.47C94.0896 192.301 94.5184 192.217 94.982 192.217C95.4621 192.217 95.8888 192.297 96.2622 192.457C96.6397 192.613 96.9577 192.835 97.2163 193.122C97.4789 193.409 97.6779 193.756 97.8133 194.162C97.9487 194.564 98.0164 195.01 98.0164 195.498V196.224H93.4987C93.5315 196.45 93.5972 196.657 93.6956 196.846C93.7982 197.03 93.9275 197.19 94.0834 197.326C94.2393 197.461 94.4178 197.566 94.6189 197.64C94.8199 197.714 95.0395 197.751 95.2775 197.751C95.4457 197.751 95.6119 197.734 95.776 197.701C95.9442 197.668 96.1043 197.621 96.2561 197.56C96.4079 197.494 96.5495 197.414 96.6808 197.32C96.8121 197.225 96.927 197.115 97.0255 196.987L97.881 197.911C97.7743 198.062 97.6348 198.212 97.4625 198.36C97.2942 198.504 97.0932 198.633 96.8593 198.748C96.6295 198.858 96.373 198.949 96.0899 199.018C95.8068 199.088 95.5011 199.123 95.1728 199.123ZM94.9697 193.602C94.7769 193.602 94.6004 193.637 94.4404 193.707C94.2804 193.772 94.1388 193.869 94.0157 193.996C93.8967 194.123 93.7962 194.275 93.7141 194.452C93.632 194.628 93.5705 194.825 93.5295 195.042H96.3361V194.907C96.3279 194.726 96.293 194.556 96.2315 194.396C96.1699 194.236 96.0817 194.099 95.9668 193.984C95.8519 193.865 95.7104 193.772 95.5421 193.707C95.378 193.637 95.1872 193.602 94.9697 193.602ZM99.3397 195.621C99.3397 195.116 99.4012 194.655 99.5243 194.236C99.6515 193.818 99.8321 193.459 100.066 193.159C100.3 192.859 100.583 192.628 100.915 192.463C101.248 192.299 101.623 192.217 102.042 192.217C102.432 192.217 102.766 192.283 103.045 192.414C103.324 192.546 103.562 192.732 103.759 192.974L103.827 192.34H105.384V198.785C105.384 199.236 105.306 199.638 105.15 199.991C104.998 200.344 104.783 200.641 104.504 200.883C104.229 201.125 103.896 201.308 103.507 201.431C103.121 201.558 102.694 201.622 102.226 201.622C102.025 201.622 101.81 201.601 101.58 201.56C101.35 201.519 101.123 201.456 100.897 201.37C100.671 201.283 100.458 201.173 100.257 201.037C100.056 200.906 99.8834 200.748 99.7398 200.563L100.509 199.523C100.727 199.769 100.973 199.956 101.248 200.083C101.523 200.215 101.82 200.28 102.14 200.28C102.62 200.28 102.994 200.151 103.26 199.892C103.531 199.638 103.667 199.275 103.667 198.803V198.421C103.466 198.643 103.23 198.815 102.959 198.938C102.692 199.062 102.382 199.123 102.029 199.123C101.615 199.123 101.242 199.039 100.909 198.871C100.581 198.698 100.3 198.462 100.066 198.163C99.8321 197.863 99.6515 197.508 99.5243 197.098C99.4012 196.684 99.3397 196.234 99.3397 195.75V195.621ZM101.057 195.75C101.057 196.029 101.084 196.29 101.137 196.532C101.194 196.77 101.281 196.979 101.395 197.16C101.51 197.336 101.656 197.476 101.832 197.578C102.009 197.681 102.218 197.732 102.46 197.732C102.76 197.732 103.006 197.675 103.199 197.56C103.396 197.445 103.552 197.285 103.667 197.08V194.261C103.552 194.051 103.396 193.891 103.199 193.781C103.006 193.666 102.764 193.608 102.473 193.608C102.23 193.608 102.021 193.662 101.845 193.768C101.668 193.871 101.521 194.015 101.402 194.199C101.287 194.38 101.201 194.593 101.143 194.839C101.086 195.081 101.057 195.342 101.057 195.621V195.75ZM111.329 198.064C111.104 198.397 110.831 198.657 110.511 198.846C110.195 199.035 109.848 199.129 109.471 199.129C109.126 199.129 108.81 199.076 108.523 198.969C108.236 198.863 107.989 198.694 107.784 198.465C107.579 198.231 107.419 197.935 107.304 197.578C107.193 197.217 107.138 196.784 107.138 196.28V192.34H108.849V196.292C108.849 196.563 108.868 196.79 108.904 196.975C108.945 197.16 109.009 197.309 109.095 197.424C109.181 197.535 109.294 197.615 109.434 197.664C109.573 197.714 109.744 197.738 109.945 197.738C110.285 197.738 110.562 197.675 110.776 197.547C110.989 197.416 111.151 197.238 111.262 197.012V192.34H112.979V199H111.428L111.329 198.064ZM119.435 192.217C119.694 192.217 119.932 192.236 120.149 192.273C120.371 192.306 120.55 192.342 120.685 192.383L120.433 194.088C120.207 194.035 119.975 193.996 119.737 193.971C119.503 193.943 119.28 193.928 119.066 193.928C118.586 193.928 118.2 194.021 117.909 194.205C117.622 194.39 117.406 194.655 117.263 194.999V199H115.552V192.34H117.146L117.226 193.43C117.497 193.052 117.821 192.757 118.198 192.543C118.576 192.326 118.988 192.217 119.435 192.217ZM122.679 192.34H126.304V197.609H128.108V199H122.679V197.609H124.575V193.738H122.679V192.34ZM124.452 190.635C124.452 190.504 124.474 190.383 124.519 190.272C124.569 190.157 124.636 190.061 124.723 189.983C124.809 189.901 124.911 189.837 125.03 189.792C125.153 189.747 125.289 189.725 125.437 189.725C125.74 189.725 125.98 189.811 126.157 189.983C126.337 190.151 126.427 190.369 126.427 190.635C126.427 190.902 126.337 191.122 126.157 191.294C125.98 191.462 125.74 191.546 125.437 191.546C125.289 191.546 125.153 191.524 125.03 191.479C124.911 191.434 124.809 191.372 124.723 191.294C124.636 191.212 124.569 191.116 124.519 191.005C124.474 190.89 124.452 190.767 124.452 190.635ZM129.616 195.621C129.616 195.116 129.673 194.655 129.788 194.236C129.907 193.818 130.079 193.459 130.305 193.159C130.531 192.859 130.804 192.628 131.124 192.463C131.448 192.299 131.817 192.217 132.232 192.217C132.58 192.217 132.886 192.281 133.149 192.408C133.415 192.531 133.651 192.708 133.856 192.937V189.546H135.574V199H134.029L133.943 198.304C133.733 198.563 133.487 198.764 133.204 198.908C132.921 199.051 132.593 199.123 132.219 199.123C131.813 199.123 131.448 199.039 131.124 198.871C130.804 198.698 130.531 198.462 130.305 198.163C130.083 197.863 129.913 197.508 129.794 197.098C129.675 196.684 129.616 196.234 129.616 195.75V195.621ZM131.327 195.75C131.327 196.029 131.349 196.29 131.394 196.532C131.444 196.77 131.522 196.979 131.628 197.16C131.735 197.336 131.872 197.476 132.041 197.578C132.209 197.681 132.414 197.732 132.656 197.732C132.952 197.732 133.196 197.668 133.389 197.541C133.586 197.414 133.742 197.24 133.856 197.018V194.322C133.742 194.097 133.588 193.922 133.395 193.799C133.202 193.672 132.96 193.608 132.669 193.608C132.426 193.608 132.219 193.662 132.047 193.768C131.879 193.871 131.741 194.015 131.635 194.199C131.528 194.38 131.45 194.593 131.401 194.839C131.351 195.081 131.327 195.342 131.327 195.621V195.75ZM141.525 199C141.484 198.918 141.45 198.824 141.421 198.717C141.392 198.61 141.367 198.497 141.347 198.378C141.253 198.481 141.144 198.577 141.021 198.668C140.898 198.758 140.76 198.838 140.608 198.908C140.461 198.973 140.297 199.025 140.116 199.062C139.935 199.103 139.741 199.123 139.531 199.123C139.191 199.123 138.877 199.074 138.59 198.975C138.306 198.877 138.062 198.739 137.857 198.563C137.652 198.387 137.492 198.177 137.377 197.935C137.262 197.689 137.205 197.422 137.205 197.135C137.205 196.433 137.465 195.892 137.986 195.51C138.512 195.124 139.293 194.932 140.331 194.932H141.285V194.538C141.285 194.218 141.181 193.965 140.972 193.781C140.762 193.592 140.461 193.498 140.067 193.498C139.718 193.498 139.464 193.573 139.304 193.725C139.143 193.873 139.063 194.072 139.063 194.322H137.352C137.352 194.039 137.414 193.77 137.537 193.516C137.664 193.262 137.847 193.038 138.085 192.845C138.327 192.652 138.62 192.5 138.965 192.39C139.314 192.275 139.712 192.217 140.159 192.217C140.561 192.217 140.935 192.267 141.279 192.365C141.628 192.463 141.93 192.609 142.184 192.802C142.438 192.995 142.637 193.239 142.781 193.534C142.925 193.826 142.996 194.164 142.996 194.55V197.406C142.996 197.763 143.019 198.058 143.064 198.292C143.109 198.526 143.175 198.727 143.261 198.895V199H141.525ZM139.894 197.8C140.067 197.8 140.227 197.779 140.374 197.738C140.522 197.697 140.656 197.644 140.775 197.578C140.894 197.513 140.996 197.439 141.082 197.357C141.168 197.27 141.236 197.184 141.285 197.098V195.953H140.411C140.145 195.953 139.917 195.98 139.728 196.033C139.539 196.083 139.386 196.154 139.267 196.249C139.148 196.339 139.059 196.45 139.002 196.581C138.944 196.708 138.916 196.848 138.916 197C138.916 197.229 138.996 197.42 139.156 197.572C139.32 197.724 139.566 197.8 139.894 197.8ZM144.757 195.621C144.757 195.116 144.814 194.655 144.929 194.236C145.048 193.818 145.22 193.459 145.446 193.159C145.672 192.859 145.945 192.628 146.265 192.463C146.589 192.299 146.958 192.217 147.373 192.217C147.721 192.217 148.027 192.281 148.29 192.408C148.556 192.531 148.792 192.708 148.998 192.937V189.546H150.715V199H149.17L149.084 198.304C148.874 198.563 148.628 198.764 148.345 198.908C148.062 199.051 147.734 199.123 147.36 199.123C146.954 199.123 146.589 199.039 146.265 198.871C145.945 198.698 145.672 198.462 145.446 198.163C145.225 197.863 145.054 197.508 144.935 197.098C144.816 196.684 144.757 196.234 144.757 195.75V195.621ZM146.468 195.75C146.468 196.029 146.49 196.29 146.536 196.532C146.585 196.77 146.663 196.979 146.769 197.16C146.876 197.336 147.014 197.476 147.182 197.578C147.35 197.681 147.555 197.732 147.797 197.732C148.093 197.732 148.337 197.668 148.53 197.541C148.727 197.414 148.883 197.24 148.998 197.018V194.322C148.883 194.097 148.729 193.922 148.536 193.799C148.343 193.672 148.101 193.608 147.81 193.608C147.568 193.608 147.36 193.662 147.188 193.768C147.02 193.871 146.882 194.015 146.776 194.199C146.669 194.38 146.591 194.593 146.542 194.839C146.492 195.081 146.468 195.342 146.468 195.621V195.75ZM166.059 195.732C166.059 196.216 166.001 196.665 165.887 197.08C165.776 197.494 165.61 197.853 165.388 198.157C165.171 198.456 164.9 198.692 164.576 198.865C164.251 199.037 163.88 199.123 163.462 199.123C163.105 199.123 162.791 199.062 162.52 198.938C162.249 198.815 162.013 198.643 161.812 198.421V201.56H160.101V192.34H161.683L161.744 192.993C161.949 192.747 162.192 192.556 162.471 192.42C162.75 192.285 163.076 192.217 163.449 192.217C163.872 192.217 164.245 192.299 164.569 192.463C164.894 192.624 165.166 192.853 165.388 193.153C165.61 193.448 165.776 193.805 165.887 194.224C166.001 194.638 166.059 195.098 166.059 195.602V195.732ZM164.348 195.602C164.348 195.323 164.321 195.063 164.268 194.821C164.219 194.575 164.139 194.363 164.028 194.187C163.921 194.006 163.782 193.865 163.609 193.762C163.441 193.66 163.236 193.608 162.994 193.608C162.694 193.608 162.448 193.668 162.255 193.787C162.066 193.902 161.919 194.066 161.812 194.279V197.061C161.919 197.27 162.066 197.439 162.255 197.566C162.448 197.689 162.698 197.751 163.006 197.751C163.248 197.751 163.453 197.697 163.622 197.591C163.794 197.484 163.933 197.338 164.04 197.154C164.147 196.969 164.225 196.756 164.274 196.513C164.323 196.267 164.348 196.007 164.348 195.732V195.602ZM171.808 199C171.767 198.918 171.732 198.824 171.703 198.717C171.674 198.61 171.65 198.497 171.629 198.378C171.535 198.481 171.426 198.577 171.303 198.668C171.18 198.758 171.042 198.838 170.891 198.908C170.743 198.973 170.579 199.025 170.398 199.062C170.218 199.103 170.023 199.123 169.813 199.123C169.473 199.123 169.159 199.074 168.872 198.975C168.589 198.877 168.344 198.739 168.139 198.563C167.934 198.387 167.774 198.177 167.659 197.935C167.544 197.689 167.487 197.422 167.487 197.135C167.487 196.433 167.747 195.892 168.269 195.51C168.794 195.124 169.575 194.932 170.614 194.932H171.568V194.538C171.568 194.218 171.463 193.965 171.254 193.781C171.044 193.592 170.743 193.498 170.349 193.498C170 193.498 169.746 193.573 169.586 193.725C169.426 193.873 169.346 194.072 169.346 194.322H167.635C167.635 194.039 167.696 193.77 167.819 193.516C167.946 193.262 168.129 193.038 168.367 192.845C168.609 192.652 168.902 192.5 169.247 192.39C169.596 192.275 169.994 192.217 170.441 192.217C170.843 192.217 171.217 192.267 171.561 192.365C171.91 192.463 172.212 192.609 172.466 192.802C172.721 192.995 172.92 193.239 173.063 193.534C173.207 193.826 173.279 194.164 173.279 194.55V197.406C173.279 197.763 173.301 198.058 173.346 198.292C173.391 198.526 173.457 198.727 173.543 198.895V199H171.808ZM170.177 197.8C170.349 197.8 170.509 197.779 170.657 197.738C170.804 197.697 170.938 197.644 171.057 197.578C171.176 197.513 171.278 197.439 171.364 197.357C171.451 197.27 171.518 197.184 171.568 197.098V195.953H170.694C170.427 195.953 170.199 195.98 170.01 196.033C169.822 196.083 169.668 196.154 169.549 196.249C169.43 196.339 169.342 196.45 169.284 196.581C169.227 196.708 169.198 196.848 169.198 197C169.198 197.229 169.278 197.42 169.438 197.572C169.602 197.724 169.848 197.8 170.177 197.8ZM180 192.217C180.258 192.217 180.496 192.236 180.714 192.273C180.935 192.306 181.114 192.342 181.249 192.383L180.997 194.088C180.771 194.035 180.539 193.996 180.301 193.971C180.067 193.943 179.844 193.928 179.63 193.928C179.15 193.928 178.765 194.021 178.473 194.205C178.186 194.39 177.971 194.655 177.827 194.999V199H176.116V192.34H177.71L177.79 193.43C178.061 193.052 178.385 192.757 178.763 192.543C179.14 192.326 179.553 192.217 180 192.217ZM186.949 199C186.908 198.918 186.873 198.824 186.844 198.717C186.815 198.61 186.791 198.497 186.77 198.378C186.676 198.481 186.567 198.577 186.444 198.668C186.321 198.758 186.183 198.838 186.032 198.908C185.884 198.973 185.72 199.025 185.539 199.062C185.359 199.103 185.164 199.123 184.954 199.123C184.614 199.123 184.3 199.074 184.013 198.975C183.73 198.877 183.486 198.739 183.28 198.563C183.075 198.387 182.915 198.177 182.8 197.935C182.685 197.689 182.628 197.422 182.628 197.135C182.628 196.433 182.888 195.892 183.41 195.51C183.935 195.124 184.717 194.932 185.755 194.932H186.709V194.538C186.709 194.218 186.604 193.965 186.395 193.781C186.185 193.592 185.884 193.498 185.49 193.498C185.141 193.498 184.887 193.573 184.727 193.725C184.567 193.873 184.487 194.072 184.487 194.322H182.776C182.776 194.039 182.837 193.77 182.96 193.516C183.088 193.262 183.27 193.038 183.508 192.845C183.75 192.652 184.044 192.5 184.388 192.39C184.737 192.275 185.135 192.217 185.582 192.217C185.984 192.217 186.358 192.267 186.702 192.365C187.051 192.463 187.353 192.609 187.607 192.802C187.862 192.995 188.061 193.239 188.204 193.534C188.348 193.826 188.42 194.164 188.42 194.55V197.406C188.42 197.763 188.442 198.058 188.487 198.292C188.533 198.526 188.598 198.727 188.684 198.895V199H186.949ZM185.318 197.8C185.49 197.8 185.65 197.779 185.798 197.738C185.945 197.697 186.079 197.644 186.198 197.578C186.317 197.513 186.419 197.439 186.506 197.357C186.592 197.27 186.659 197.184 186.709 197.098V195.953H185.835C185.568 195.953 185.34 195.98 185.151 196.033C184.963 196.083 184.809 196.154 184.69 196.249C184.571 196.339 184.483 196.45 184.425 196.581C184.368 196.708 184.339 196.848 184.339 197C184.339 197.229 184.419 197.42 184.579 197.572C184.743 197.724 184.989 197.8 185.318 197.8ZM201.16 199.123C200.647 199.123 200.182 199.039 199.763 198.871C199.345 198.703 198.986 198.475 198.686 198.188C198.387 197.896 198.155 197.556 197.991 197.166C197.831 196.772 197.751 196.351 197.751 195.904V195.658C197.751 195.149 197.831 194.685 197.991 194.267C198.151 193.844 198.374 193.481 198.661 193.177C198.949 192.874 199.289 192.638 199.683 192.47C200.077 192.301 200.506 192.217 200.97 192.217C201.45 192.217 201.876 192.297 202.25 192.457C202.627 192.613 202.945 192.835 203.204 193.122C203.466 193.409 203.665 193.756 203.801 194.162C203.936 194.564 204.004 195.01 204.004 195.498V196.224H199.486C199.519 196.45 199.585 196.657 199.683 196.846C199.786 197.03 199.915 197.19 200.071 197.326C200.227 197.461 200.405 197.566 200.606 197.64C200.807 197.714 201.027 197.751 201.265 197.751C201.433 197.751 201.599 197.734 201.764 197.701C201.932 197.668 202.092 197.621 202.244 197.56C202.395 197.494 202.537 197.414 202.668 197.32C202.8 197.225 202.915 197.115 203.013 196.987L203.869 197.911C203.762 198.062 203.622 198.212 203.45 198.36C203.282 198.504 203.081 198.633 202.847 198.748C202.617 198.858 202.361 198.949 202.077 199.018C201.794 199.088 201.489 199.123 201.16 199.123ZM200.957 193.602C200.764 193.602 200.588 193.637 200.428 193.707C200.268 193.772 200.126 193.869 200.003 193.996C199.884 194.123 199.784 194.275 199.702 194.452C199.62 194.628 199.558 194.825 199.517 195.042H202.324V194.907C202.315 194.726 202.281 194.556 202.219 194.396C202.157 194.236 202.069 194.099 201.954 193.984C201.839 193.865 201.698 193.772 201.53 193.707C201.366 193.637 201.175 193.602 200.957 193.602ZM205.857 189.546H209.58V197.609H211.488V199H205.857V197.609H207.851V190.943H205.857V189.546ZM52.6793 211.193C52.6506 211.645 52.5521 212.051 52.3839 212.412C52.2198 212.773 51.9982 213.081 51.7192 213.335C51.4401 213.59 51.1078 213.787 50.7221 213.926C50.3364 214.062 49.9096 214.129 49.4418 214.129C48.9125 214.129 48.4427 214.033 48.0324 213.84C47.622 213.643 47.2774 213.37 46.9983 213.021C46.7193 212.668 46.506 212.246 46.3582 211.753C46.2105 211.261 46.1367 210.719 46.1367 210.129V208.922C46.1367 208.327 46.2146 207.784 46.3705 207.291C46.5265 206.799 46.748 206.376 47.0353 206.023C47.3225 205.67 47.6692 205.397 48.0755 205.205C48.4858 205.008 48.9453 204.909 49.4542 204.909C49.9465 204.909 50.3835 204.979 50.7652 205.118C51.1509 205.258 51.4791 205.457 51.7499 205.715C52.0208 205.974 52.2341 206.29 52.39 206.663C52.546 207.037 52.6445 207.457 52.6855 207.925H50.9621C50.9457 207.658 50.9047 207.425 50.839 207.223C50.7775 207.022 50.6851 206.856 50.562 206.725C50.443 206.589 50.2912 206.489 50.1066 206.423C49.926 206.354 49.7086 206.319 49.4542 206.319C49.1874 206.319 48.9556 206.376 48.7587 206.491C48.5617 206.606 48.3976 206.774 48.2663 206.996C48.1391 207.217 48.0447 207.49 47.9831 207.814C47.9216 208.134 47.8908 208.5 47.8908 208.91V210.129C47.8908 211.011 48.0139 211.663 48.2601 212.086C48.5104 212.508 48.9043 212.72 49.4418 212.72C49.8932 212.72 50.2502 212.601 50.5128 212.363C50.7754 212.121 50.9211 211.731 50.9498 211.193H52.6793ZM53.8549 210.609C53.8549 210.124 53.9247 209.677 54.0642 209.267C54.2037 208.852 54.4068 208.493 54.6735 208.19C54.9443 207.886 55.2726 207.648 55.6583 207.476C56.0481 207.303 56.4933 207.217 56.9939 207.217C57.4945 207.217 57.9397 207.303 58.3295 207.476C58.7193 207.648 59.0476 207.886 59.3143 208.19C59.5851 208.493 59.7903 208.852 59.9298 209.267C60.0693 209.677 60.1391 210.124 60.1391 210.609V210.738C60.1391 211.226 60.0693 211.678 59.9298 212.092C59.7903 212.502 59.5872 212.859 59.3205 213.163C59.0538 213.467 58.7255 213.705 58.3357 213.877C57.9459 214.045 57.5027 214.129 57.0062 214.129C56.5056 214.129 56.0584 214.045 55.6645 213.877C55.2746 213.705 54.9443 213.467 54.6735 213.163C54.4068 212.859 54.2037 212.502 54.0642 212.092C53.9247 211.678 53.8549 211.226 53.8549 210.738V210.609ZM55.566 210.738C55.566 211.017 55.5927 211.28 55.646 211.526C55.6993 211.768 55.7835 211.981 55.8983 212.166C56.0132 212.346 56.161 212.49 56.3415 212.597C56.5261 212.703 56.7477 212.757 57.0062 212.757C57.2565 212.757 57.4719 212.703 57.6525 212.597C57.833 212.49 57.9787 212.346 58.0895 212.166C58.2044 211.981 58.2885 211.768 58.3418 211.526C58.3952 211.28 58.4219 211.017 58.4219 210.738V210.609C58.4219 210.338 58.3952 210.081 58.3418 209.839C58.2885 209.597 58.2044 209.384 58.0895 209.199C57.9787 209.015 57.833 208.869 57.6525 208.762C57.4719 208.655 57.2524 208.602 56.9939 208.602C56.7395 208.602 56.522 208.655 56.3415 208.762C56.161 208.869 56.0132 209.015 55.8983 209.199C55.7835 209.384 55.6993 209.597 55.646 209.839C55.5927 210.081 55.566 210.338 55.566 210.609V210.738ZM63.2104 207.34L63.315 208.264C63.553 207.931 63.8423 207.675 64.1829 207.494C64.5234 207.31 64.9009 207.217 65.3154 207.217C65.6518 207.217 65.9596 207.267 66.2386 207.365C66.5176 207.463 66.7577 207.621 66.9587 207.839C67.1639 208.052 67.3219 208.329 67.4326 208.67C67.5475 209.006 67.605 209.417 67.605 209.901V214H65.8939V209.925C65.8939 209.663 65.8631 209.447 65.8016 209.279C65.7442 209.107 65.66 208.971 65.5492 208.873C65.4385 208.774 65.3051 208.707 65.1492 208.67C64.9933 208.629 64.8168 208.608 64.6199 208.608C64.3285 208.608 64.0803 208.668 63.8751 208.787C63.6699 208.902 63.5038 209.062 63.3766 209.267V214H61.6593V207.34H63.2104ZM72.3689 205.709V207.34H74.8555V208.602H72.3689V211.464C72.3689 211.706 72.3956 211.909 72.4489 212.074C72.5063 212.234 72.5864 212.363 72.6889 212.461C72.7915 212.556 72.9146 212.623 73.0582 212.664C73.206 212.705 73.3701 212.726 73.5506 212.726C73.6819 212.726 73.8153 212.72 73.9507 212.707C74.0902 212.695 74.2215 212.681 74.3446 212.664C74.4718 212.644 74.5888 212.623 74.6954 212.603C74.8062 212.582 74.9006 212.562 74.9786 212.541L75.1447 213.717C75.0258 213.787 74.8862 213.848 74.7262 213.902C74.5662 213.951 74.3959 213.992 74.2154 214.025C74.0348 214.057 73.8461 214.082 73.6491 214.098C73.4563 214.119 73.2654 214.129 73.0767 214.129C72.7115 214.129 72.3791 214.082 72.0796 213.988C71.7842 213.889 71.5298 213.739 71.3164 213.538C71.1071 213.333 70.945 213.075 70.8302 212.763C70.7153 212.447 70.6578 212.069 70.6578 211.63V208.602H69.1376V207.34H70.6578V205.709H72.3689ZM81.5828 207.217C81.8413 207.217 82.0793 207.236 82.2968 207.273C82.5183 207.306 82.6968 207.342 82.8322 207.383L82.5799 209.088C82.3542 209.035 82.1224 208.996 81.8844 208.971C81.6505 208.943 81.4269 208.928 81.2135 208.928C80.7334 208.928 80.3477 209.021 80.0564 209.205C79.7691 209.39 79.5537 209.655 79.4101 209.999V214H77.699V207.34H79.2932L79.3732 208.43C79.644 208.052 79.9681 207.757 80.3456 207.543C80.7232 207.326 81.1355 207.217 81.5828 207.217ZM84.1371 210.609C84.1371 210.124 84.2068 209.677 84.3463 209.267C84.4858 208.852 84.689 208.493 84.9557 208.19C85.2265 207.886 85.5547 207.648 85.9405 207.476C86.3303 207.303 86.7755 207.217 87.2761 207.217C87.7767 207.217 88.2219 207.303 88.6117 207.476C89.0015 207.648 89.3298 207.886 89.5965 208.19C89.8673 208.493 90.0725 208.852 90.212 209.267C90.3515 209.677 90.4212 210.124 90.4212 210.609V210.738C90.4212 211.226 90.3515 211.678 90.212 212.092C90.0725 212.502 89.8693 212.859 89.6026 213.163C89.3359 213.467 89.0077 213.705 88.6178 213.877C88.228 214.045 87.7849 214.129 87.2884 214.129C86.7878 214.129 86.3405 214.045 85.9466 213.877C85.5568 213.705 85.2265 213.467 84.9557 213.163C84.689 212.859 84.4858 212.502 84.3463 212.092C84.2068 211.678 84.1371 211.226 84.1371 210.738V210.609ZM85.8481 210.738C85.8481 211.017 85.8748 211.28 85.9281 211.526C85.9815 211.768 86.0656 211.981 86.1805 212.166C86.2954 212.346 86.4431 212.49 86.6237 212.597C86.8083 212.703 87.0299 212.757 87.2884 212.757C87.5387 212.757 87.7541 212.703 87.9346 212.597C88.1152 212.49 88.2609 212.346 88.3716 212.166C88.4865 211.981 88.5707 211.768 88.624 211.526C88.6773 211.28 88.704 211.017 88.704 210.738V210.609C88.704 210.338 88.6773 210.081 88.624 209.839C88.5707 209.597 88.4865 209.384 88.3716 209.199C88.2609 209.015 88.1152 208.869 87.9346 208.762C87.7541 208.655 87.5346 208.602 87.2761 208.602C87.0217 208.602 86.8042 208.655 86.6237 208.762C86.4431 208.869 86.2954 209.015 86.1805 209.199C86.0656 209.384 85.9815 209.597 85.9281 209.839C85.8748 210.081 85.8481 210.338 85.8481 210.609V210.738ZM92.2985 204.546H96.0222V212.609H97.9302V214H92.2985V212.609H94.2927V205.943H92.2985V204.546ZM106.904 210.621C106.904 210.116 106.962 209.655 107.076 209.236C107.195 208.818 107.368 208.459 107.593 208.159C107.819 207.859 108.092 207.628 108.412 207.463C108.736 207.299 109.105 207.217 109.52 207.217C109.869 207.217 110.174 207.281 110.437 207.408C110.704 207.531 110.94 207.708 111.145 207.937V204.546H112.862V214H111.317L111.231 213.304C111.022 213.563 110.776 213.764 110.492 213.908C110.209 214.051 109.881 214.123 109.508 214.123C109.101 214.123 108.736 214.039 108.412 213.871C108.092 213.698 107.819 213.462 107.593 213.163C107.372 212.863 107.202 212.508 107.083 212.098C106.964 211.684 106.904 211.234 106.904 210.75V210.621ZM108.615 210.75C108.615 211.029 108.638 211.29 108.683 211.532C108.732 211.77 108.81 211.979 108.917 212.16C109.023 212.336 109.161 212.476 109.329 212.578C109.497 212.681 109.703 212.732 109.945 212.732C110.24 212.732 110.484 212.668 110.677 212.541C110.874 212.414 111.03 212.24 111.145 212.018V209.322C111.03 209.097 110.876 208.922 110.683 208.799C110.49 208.672 110.248 208.608 109.957 208.608C109.715 208.608 109.508 208.662 109.335 208.768C109.167 208.871 109.03 209.015 108.923 209.199C108.816 209.38 108.738 209.593 108.689 209.839C108.64 210.081 108.615 210.342 108.615 210.621V210.75ZM117.884 214.123C117.372 214.123 116.906 214.039 116.487 213.871C116.069 213.703 115.71 213.475 115.41 213.188C115.111 212.896 114.879 212.556 114.715 212.166C114.555 211.772 114.475 211.351 114.475 210.904V210.658C114.475 210.149 114.555 209.685 114.715 209.267C114.875 208.844 115.098 208.481 115.386 208.177C115.673 207.874 116.013 207.638 116.407 207.47C116.801 207.301 117.23 207.217 117.694 207.217C118.174 207.217 118.6 207.297 118.974 207.457C119.351 207.613 119.669 207.835 119.928 208.122C120.19 208.409 120.389 208.756 120.525 209.162C120.66 209.564 120.728 210.01 120.728 210.498V211.224H116.21C116.243 211.45 116.309 211.657 116.407 211.846C116.51 212.03 116.639 212.19 116.795 212.326C116.951 212.461 117.129 212.566 117.33 212.64C117.532 212.714 117.751 212.751 117.989 212.751C118.157 212.751 118.323 212.734 118.488 212.701C118.656 212.668 118.816 212.621 118.968 212.56C119.12 212.494 119.261 212.414 119.392 212.32C119.524 212.225 119.639 212.115 119.737 211.987L120.593 212.911C120.486 213.062 120.346 213.212 120.174 213.36C120.006 213.504 119.805 213.633 119.571 213.748C119.341 213.858 119.085 213.949 118.802 214.018C118.518 214.088 118.213 214.123 117.884 214.123ZM117.681 208.602C117.488 208.602 117.312 208.637 117.152 208.707C116.992 208.772 116.85 208.869 116.727 208.996C116.608 209.123 116.508 209.275 116.426 209.452C116.344 209.628 116.282 209.825 116.241 210.042H119.048V209.907C119.04 209.726 119.005 209.556 118.943 209.396C118.882 209.236 118.793 209.099 118.678 208.984C118.564 208.865 118.422 208.772 118.254 208.707C118.09 208.637 117.899 208.602 117.681 208.602ZM134.14 212.129H131.45L130.921 214H129.099L132.035 205.038H133.604L136.485 214H134.663L134.14 212.129ZM131.875 210.658H133.733L132.816 207.359L131.875 210.658ZM140.313 212.757C140.481 212.757 140.641 212.732 140.793 212.683C140.945 212.634 141.078 212.564 141.193 212.474C141.308 212.383 141.396 212.275 141.458 212.147C141.523 212.02 141.552 211.879 141.544 211.723H143.156C143.165 212.067 143.093 212.387 142.941 212.683C142.793 212.978 142.59 213.233 142.332 213.446C142.073 213.659 141.772 213.828 141.427 213.951C141.086 214.07 140.725 214.129 140.344 214.129C139.827 214.129 139.373 214.043 138.983 213.871C138.594 213.694 138.267 213.454 138.005 213.151C137.746 212.847 137.549 212.492 137.414 212.086C137.283 211.675 137.217 211.236 137.217 210.769V210.584C137.217 210.116 137.283 209.679 137.414 209.273C137.545 208.863 137.742 208.506 138.005 208.202C138.267 207.898 138.592 207.658 138.977 207.482C139.367 207.306 139.818 207.217 140.331 207.217C140.742 207.217 141.121 207.279 141.47 207.402C141.819 207.525 142.118 207.699 142.369 207.925C142.623 208.147 142.82 208.417 142.96 208.738C143.099 209.054 143.165 209.408 143.156 209.802H141.544C141.552 209.638 141.528 209.482 141.47 209.335C141.413 209.187 141.328 209.06 141.218 208.953C141.107 208.846 140.974 208.762 140.818 208.701C140.662 208.635 140.491 208.602 140.307 208.602C140.036 208.602 139.812 208.658 139.636 208.768C139.459 208.879 139.318 209.027 139.211 209.211C139.109 209.396 139.035 209.607 138.99 209.845C138.949 210.083 138.928 210.33 138.928 210.584V210.769C138.928 211.027 138.949 211.277 138.99 211.52C139.031 211.758 139.102 211.969 139.205 212.154C139.312 212.334 139.453 212.48 139.63 212.591C139.81 212.701 140.038 212.757 140.313 212.757ZM147.883 212.757C148.052 212.757 148.212 212.732 148.364 212.683C148.515 212.634 148.649 212.564 148.764 212.474C148.879 212.383 148.967 212.275 149.028 212.147C149.094 212.02 149.123 211.879 149.114 211.723H150.727C150.735 212.067 150.663 212.387 150.512 212.683C150.364 212.978 150.161 213.233 149.902 213.446C149.644 213.659 149.342 213.828 148.998 213.951C148.657 214.07 148.296 214.129 147.914 214.129C147.397 214.129 146.944 214.043 146.554 213.871C146.164 213.694 145.838 213.454 145.575 213.151C145.317 212.847 145.12 212.492 144.985 212.086C144.853 211.675 144.788 211.236 144.788 210.769V210.584C144.788 210.116 144.853 209.679 144.985 209.273C145.116 208.863 145.313 208.506 145.575 208.202C145.838 207.898 146.162 207.658 146.548 207.482C146.938 207.306 147.389 207.217 147.902 207.217C148.312 207.217 148.692 207.279 149.041 207.402C149.389 207.525 149.689 207.699 149.939 207.925C150.194 208.147 150.391 208.417 150.53 208.738C150.67 209.054 150.735 209.408 150.727 209.802H149.114C149.123 209.638 149.098 209.482 149.041 209.335C148.983 209.187 148.899 209.06 148.788 208.953C148.677 208.846 148.544 208.762 148.388 208.701C148.232 208.635 148.062 208.602 147.877 208.602C147.607 208.602 147.383 208.658 147.206 208.768C147.03 208.879 146.888 209.027 146.782 209.211C146.679 209.396 146.605 209.607 146.56 209.845C146.519 210.083 146.499 210.33 146.499 210.584V210.769C146.499 211.027 146.519 211.277 146.56 211.52C146.601 211.758 146.673 211.969 146.776 212.154C146.882 212.334 147.024 212.48 147.2 212.591C147.381 212.701 147.609 212.757 147.883 212.757ZM155.737 214.123C155.224 214.123 154.759 214.039 154.34 213.871C153.921 213.703 153.562 213.475 153.263 213.188C152.963 212.896 152.731 212.556 152.567 212.166C152.407 211.772 152.327 211.351 152.327 210.904V210.658C152.327 210.149 152.407 209.685 152.567 209.267C152.727 208.844 152.951 208.481 153.238 208.177C153.525 207.874 153.866 207.638 154.26 207.47C154.654 207.301 155.083 207.217 155.546 207.217C156.026 207.217 156.453 207.297 156.827 207.457C157.204 207.613 157.522 207.835 157.781 208.122C158.043 208.409 158.242 208.756 158.378 209.162C158.513 209.564 158.581 210.01 158.581 210.498V211.224H154.063C154.096 211.45 154.161 211.657 154.26 211.846C154.363 212.03 154.492 212.19 154.648 212.326C154.804 212.461 154.982 212.566 155.183 212.64C155.384 212.714 155.604 212.751 155.842 212.751C156.01 212.751 156.176 212.734 156.34 212.701C156.509 212.668 156.669 212.621 156.82 212.56C156.972 212.494 157.114 212.414 157.245 212.32C157.376 212.225 157.491 212.115 157.59 211.987L158.445 212.911C158.339 213.062 158.199 213.212 158.027 213.36C157.859 213.504 157.657 213.633 157.424 213.748C157.194 213.858 156.937 213.949 156.654 214.018C156.371 214.088 156.065 214.123 155.737 214.123ZM155.534 208.602C155.341 208.602 155.165 208.637 155.005 208.707C154.845 208.772 154.703 208.869 154.58 208.996C154.461 209.123 154.36 209.275 154.278 209.452C154.196 209.628 154.135 209.825 154.094 210.042H156.9V209.907C156.892 209.726 156.857 209.556 156.796 209.396C156.734 209.236 156.646 209.099 156.531 208.984C156.416 208.865 156.275 208.772 156.106 208.707C155.942 208.637 155.752 208.602 155.534 208.602ZM164.372 212.172C164.372 212.069 164.348 211.979 164.299 211.901C164.253 211.823 164.169 211.751 164.046 211.686C163.927 211.616 163.767 211.552 163.566 211.495C163.365 211.438 163.111 211.38 162.803 211.323C162.413 211.245 162.056 211.148 161.732 211.033C161.412 210.914 161.137 210.773 160.907 210.609C160.677 210.44 160.497 210.248 160.366 210.03C160.238 209.813 160.175 209.562 160.175 209.279C160.175 209.004 160.24 208.742 160.372 208.491C160.503 208.241 160.692 208.022 160.938 207.833C161.184 207.644 161.484 207.494 161.837 207.383C162.19 207.273 162.588 207.217 163.031 207.217C163.494 207.217 163.911 207.273 164.28 207.383C164.649 207.49 164.961 207.64 165.216 207.833C165.474 208.022 165.671 208.247 165.807 208.51C165.942 208.772 166.01 209.058 166.01 209.365H164.299C164.299 209.107 164.194 208.891 163.985 208.719C163.775 208.543 163.457 208.454 163.031 208.454C162.633 208.454 162.331 208.526 162.126 208.67C161.925 208.813 161.824 208.99 161.824 209.199C161.824 209.298 161.845 209.39 161.886 209.476C161.927 209.558 161.999 209.634 162.101 209.704C162.208 209.77 162.352 209.831 162.532 209.889C162.713 209.942 162.942 209.989 163.221 210.03C163.624 210.096 163.997 210.18 164.342 210.282C164.686 210.385 164.984 210.518 165.234 210.683C165.484 210.843 165.679 211.039 165.819 211.273C165.962 211.503 166.034 211.778 166.034 212.098C166.034 212.394 165.962 212.666 165.819 212.917C165.679 213.163 165.478 213.376 165.216 213.557C164.957 213.737 164.643 213.879 164.274 213.982C163.905 214.08 163.492 214.129 163.037 214.129C162.536 214.129 162.093 214.064 161.707 213.932C161.326 213.801 161.006 213.631 160.747 213.421C160.489 213.208 160.292 212.968 160.156 212.701C160.025 212.43 159.959 212.16 159.959 211.889H161.59C161.603 212.069 161.652 212.225 161.738 212.357C161.824 212.484 161.935 212.588 162.071 212.671C162.206 212.749 162.36 212.806 162.532 212.843C162.709 212.88 162.889 212.898 163.074 212.898C163.496 212.898 163.819 212.831 164.04 212.695C164.262 212.56 164.372 212.385 164.372 212.172ZM167.413 210.609C167.413 210.124 167.483 209.677 167.622 209.267C167.762 208.852 167.965 208.493 168.232 208.19C168.502 207.886 168.831 207.648 169.216 207.476C169.606 207.303 170.051 207.217 170.552 207.217C171.053 207.217 171.498 207.303 171.888 207.476C172.277 207.648 172.606 207.886 172.872 208.19C173.143 208.493 173.348 208.852 173.488 209.267C173.627 209.677 173.697 210.124 173.697 210.609V210.738C173.697 211.226 173.627 211.678 173.488 212.092C173.348 212.502 173.145 212.859 172.879 213.163C172.612 213.467 172.284 213.705 171.894 213.877C171.504 214.045 171.061 214.129 170.564 214.129C170.064 214.129 169.616 214.045 169.223 213.877C168.833 213.705 168.502 213.467 168.232 213.163C167.965 212.859 167.762 212.502 167.622 212.092C167.483 211.678 167.413 211.226 167.413 210.738V210.609ZM169.124 210.738C169.124 211.017 169.151 211.28 169.204 211.526C169.257 211.768 169.342 211.981 169.456 212.166C169.571 212.346 169.719 212.49 169.9 212.597C170.084 212.703 170.306 212.757 170.564 212.757C170.815 212.757 171.03 212.703 171.211 212.597C171.391 212.49 171.537 212.346 171.648 212.166C171.762 211.981 171.847 211.768 171.9 211.526C171.953 211.28 171.98 211.017 171.98 210.738V210.609C171.98 210.338 171.953 210.081 171.9 209.839C171.847 209.597 171.762 209.384 171.648 209.199C171.537 209.015 171.391 208.869 171.211 208.762C171.03 208.655 170.811 208.602 170.552 208.602C170.298 208.602 170.08 208.655 169.9 208.762C169.719 208.869 169.571 209.015 169.456 209.199C169.342 209.384 169.257 209.597 169.204 209.839C169.151 210.081 169.124 210.338 169.124 210.609V210.738Z" fill="#2A4F7B"/>
</svg>
